<svg width="46" height="46" viewBox="0 0 46 46" fill="none" xmlns="http://www.w3.org/2000/svg">
<circle cx="23" cy="23" r="23" fill="#FF9900"/>
<path d="M13.8117 14.8559C11.8525 17.0646 10.7567 19.9091 10.7235 22.8651C10.646 29.625 16.1251 35.1691 22.8218 35.1914C29.5185 35.2025 34.9201 29.7366 34.9201 22.999C34.9201 16.3618 29.6513 10.9517 23.0985 10.8066C23.0653 10.8066 23.021 10.8066 22.9878 10.829C22.9546 10.8401 22.9214 10.8624 22.8993 10.8847C22.8771 10.907 22.855 10.9405 22.8329 10.974C22.8218 11.0074 22.8107 11.0409 22.8107 11.0855V16.3953" stroke="white" stroke-width="3.5" stroke-linecap="round" stroke-linejoin="round"/>
<path d="M21.4062 24.4266L16.4252 17.2539C16.3477 17.1535 16.3256 17.0308 16.3367 16.9081C16.3477 16.7854 16.392 16.6739 16.4806 16.5846C16.5691 16.4954 16.6798 16.4508 16.8016 16.4396C16.9122 16.4285 17.034 16.4619 17.1336 16.5289L24.2509 21.5486C24.6826 21.8609 24.9815 22.3406 25.07 22.876C25.1586 23.4115 25.0368 23.9581 24.7269 24.4042C24.417 24.8504 23.9521 25.1516 23.4208 25.252C22.8895 25.3524 22.3471 25.2297 21.9043 24.9285C21.7162 24.7947 21.539 24.6273 21.4062 24.4266Z" fill="white"/>
</svg>
